<?xml version="1.0" standalone="no"?>
<!DOCTYPE svg PUBLIC "-//W3C//DTD SVG 20010904//EN"
 "http://www.w3.org/TR/2001/REC-SVG-20010904/DTD/svg10.dtd">
<svg version="1.0" xmlns="http://www.w3.org/2000/svg"
 width="1259.000000pt" height="1259.000000pt" viewBox="0 0 1259.000000 1259.000000"
 preserveAspectRatio="xMidYMid meet">
<metadata>
Created by potrace 1.14, written by Peter Selinger 2001-2017
</metadata>
<g transform="translate(0.000000,1259.000000) scale(0.100000,-0.100000)"
fill="#000000" stroke="none">
<path d="M5998 12585 c-2 -1 -59 -6 -127 -10 -69 -4 -132 -8 -140 -10 -9 -1
-51 -6 -94 -10 -43 -3 -88 -8 -100 -10 -30 -4 -104 -14 -152 -20 -34 -4 -228
-38 -290 -50 -80 -16 -129 -26 -190 -40 -38 -9 -77 -18 -85 -20 -8 -2 -60 -15
-115 -29 -55 -15 -107 -28 -115 -30 -55 -14 -335 -105 -435 -141 -381 -138
-771 -325 -1125 -537 -91 -55 -355 -231 -358 -239 -2 -5 -8 -9 -13 -9 -6 0
-15 -5 -22 -10 -7 -6 -73 -56 -147 -112 -74 -55 -137 -104 -140 -107 -3 -3
-36 -31 -75 -62 -38 -31 -82 -67 -96 -80 -14 -13 -61 -55 -105 -94 -142 -126
-399 -388 -535 -546 -11 -13 -30 -35 -42 -49 -243 -276 -563 -747 -752 -1105
-68 -129 -155 -303 -155 -309 0 -3 -15 -38 -34 -78 -19 -40 -49 -107 -66 -148
-17 -41 -35 -84 -40 -95 -5 -11 -22 -56 -38 -100 -16 -44 -33 -89 -37 -100 -5
-11 -9 -22 -10 -25 0 -3 -22 -68 -47 -145 -40 -120 -90 -284 -103 -335 -2 -8
-20 -82 -40 -164 -34 -140 -90 -421 -101 -511 -3 -22 -7 -49 -9 -61 -2 -11 -7
-45 -11 -75 -3 -30 -8 -65 -10 -79 -2 -14 -6 -52 -9 -85 -3 -33 -8 -78 -11
-100 -25 -210 -25 -1000 1 -1120 3 -11 7 -49 10 -85 7 -99 31 -273 55 -412 5
-32 14 -82 19 -110 12 -71 80 -376 92 -413 5 -16 27 -93 49 -170 45 -161 133
-420 185 -550 141 -350 339 -747 499 -1000 128 -203 408 -601 446 -635 3 -3
25 -30 50 -60 25 -30 59 -71 76 -90 17 -19 69 -78 115 -130 327 -371 781 -759
1218 -1044 205 -134 216 -140 217 -135 1 2 10 -3 20 -12 19 -17 114 -72 259
-149 44 -24 87 -47 95 -51 21 -12 256 -123 310 -146 25 -11 61 -27 80 -36 289
-128 809 -296 1090 -353 14 -3 77 -16 140 -29 63 -13 133 -27 155 -30 86 -14
101 -16 125 -21 22 -4 169 -23 315 -40 294 -35 914 -40 1205 -9 19 2 65 6 101
9 36 4 76 8 90 10 13 3 51 7 84 11 32 4 68 9 80 11 11 3 40 7 65 10 25 3 52 7
60 9 8 3 33 7 55 10 22 3 124 24 226 45 593 126 1215 359 1724 643 33 18 81
45 107 60 200 112 691 445 706 480 2 4 8 7 14 7 5 0 15 6 22 13 7 6 32 28 56
47 48 38 168 138 186 155 6 5 44 39 84 75 98 87 345 333 447 445 377 415 716
910 965 1412 89 178 108 219 158 338 12 28 28 64 35 80 13 30 84 214 111 290
8 22 28 83 45 135 17 52 33 102 36 110 3 8 7 20 9 25 1 6 20 73 42 150 36 127
104 414 117 491 2 17 12 66 20 110 8 43 18 99 21 124 3 25 7 56 10 70 14 85
38 306 51 473 15 204 8 788 -12 992 -5 52 -16 149 -20 180 -2 17 -7 53 -10 80
-3 28 -8 61 -10 75 -3 14 -7 43 -10 65 -3 22 -10 63 -15 90 -5 28 -12 66 -15
85 -13 78 -77 362 -105 465 -17 61 -32 119 -35 129 -39 161 -195 589 -297 817
-45 101 -210 430 -253 504 -19 33 -38 67 -42 75 -16 35 -152 254 -227 365 -76
115 -314 438 -353 480 -10 11 -44 52 -77 90 -154 183 -408 446 -570 590 -43
39 -86 77 -95 86 -27 26 -193 163 -236 194 -22 17 -42 32 -45 36 -9 9 -163
124 -215 159 -27 19 -54 38 -60 43 -27 23 -257 169 -385 245 -225 133 -549
294 -805 400 -33 13 -73 30 -90 37 -92 40 -504 178 -595 200 -8 2 -86 22 -173
45 -87 22 -173 42 -190 46 -18 3 -61 11 -97 19 -36 7 -83 17 -105 21 -22 4
-47 8 -55 10 -8 1 -35 6 -60 10 -25 4 -52 9 -60 10 -8 2 -35 6 -60 9 -25 3
-56 7 -70 10 -14 2 -52 7 -85 10 -33 4 -71 8 -85 10 -14 2 -63 6 -110 10 -47
4 -101 9 -120 11 -39 6 -726 14 -732 9z"/>
</g>
</svg>
